<svg xmlns="http://www.w3.org/2000/svg" xmlns:xlink="http://www.w3.org/1999/xlink" width="1080" zoomAndPan="magnify" viewBox="0 0 810 809.999993" height="1080" preserveAspectRatio="xMidYMid meet" version="1.0"><defs><g/></defs><rect x="-81" width="972" fill="#ffffff" y="-80.999999" height="971.999992" fill-opacity="1"/><rect x="-81" width="972" fill="#ffffff" y="-80.999999" height="971.999992" fill-opacity="1"/><g fill="#000000" fill-opacity="1"><g transform="translate(66.33821, 481.283642)"><g><path d="M 86.578125 -70.875 C 91.140625 -71.269531 95.53125 -70.828125 99.75 -69.546875 C 103.976562 -68.273438 107.632812 -66.160156 110.71875 -63.203125 C 113.8125 -60.253906 115.828125 -56.367188 116.765625 -51.546875 C 117.441406 -48.054688 117.507812 -44.394531 116.96875 -40.5625 C 116.4375 -36.738281 115.632812 -33.082031 114.5625 -29.59375 C 112.007812 -21.675781 108.082031 -14.53125 102.78125 -8.15625 C 97.476562 -1.78125 91.335938 3.785156 84.359375 8.546875 C 77.378906 13.316406 70.195312 17.378906 62.8125 20.734375 C 58.25 22.878906 53.414062 24.789062 48.3125 26.46875 C 43.21875 28.144531 38.117188 29.523438 33.015625 30.609375 C 29.929688 31.140625 26.878906 31.472656 23.859375 31.609375 C 20.835938 31.742188 17.785156 31.539062 14.703125 31 C 13.628906 30.863281 12.117188 30.660156 10.171875 30.390625 C 8.222656 30.128906 6.34375 29.726562 4.53125 29.1875 C 2.71875 28.65625 1.476562 27.921875 0.8125 26.984375 C -0.132812 25.773438 -0.238281 25.066406 0.5 24.859375 C 1.238281 24.660156 2.210938 24.492188 3.421875 24.359375 C 6.378906 23.828125 9.265625 23.320312 12.078125 22.84375 C 14.898438 22.375 17.648438 21.671875 20.328125 20.734375 C 26.773438 18.859375 33.050781 16.476562 39.15625 13.59375 C 45.257812 10.707031 51.132812 7.585938 56.78125 4.234375 C 62.144531 1.003906 67.273438 -2.519531 72.171875 -6.34375 C 77.078125 -10.164062 81.609375 -14.359375 85.765625 -18.921875 C 87.640625 -21.203125 89.445312 -23.550781 91.1875 -25.96875 C 92.9375 -28.382812 94.414062 -30.867188 95.625 -33.421875 C 96.03125 -34.359375 96.5 -35.664062 97.03125 -37.34375 C 97.570312 -39.019531 97.976562 -40.660156 98.25 -42.265625 C 98.519531 -43.878906 98.453125 -44.890625 98.046875 -45.296875 C 97.910156 -45.429688 97.675781 -46.234375 97.34375 -47.703125 C 97.007812 -49.179688 96.84375 -50.460938 96.84375 -51.546875 C 96.976562 -50.867188 97.175781 -50.191406 97.4375 -49.515625 C 97.707031 -48.847656 97.910156 -48.25 98.046875 -47.71875 C 97.910156 -48.789062 97.738281 -49.894531 97.53125 -51.03125 C 97.332031 -52.175781 96.96875 -53.285156 96.4375 -54.359375 L 96.4375 -53.75 C 96.164062 -54.289062 95.59375 -55.0625 94.71875 -56.0625 C 93.851562 -57.070312 93.351562 -57.578125 93.21875 -57.578125 C 92.28125 -58.515625 91.269531 -59.21875 90.1875 -59.6875 C 89.113281 -60.15625 87.972656 -60.457031 86.765625 -60.59375 C 84.222656 -60.863281 82.046875 -60.5625 80.234375 -59.6875 C 78.421875 -58.820312 76.375 -58.050781 74.09375 -57.375 C 72.75 -56.976562 71.035156 -57.210938 68.953125 -58.078125 C 66.867188 -58.953125 64.851562 -60.09375 62.90625 -61.5 C 60.96875 -62.914062 59.628906 -64.394531 58.890625 -65.9375 C 58.148438 -67.476562 58.519531 -68.851562 60 -70.0625 C 61.34375 -71.132812 62.953125 -71.972656 64.828125 -72.578125 C 66.703125 -73.179688 68.378906 -73.953125 69.859375 -74.890625 C 72.410156 -76.773438 74.894531 -78.6875 77.3125 -80.625 C 79.726562 -82.570312 82.007812 -84.617188 84.15625 -86.765625 C 86.570312 -89.046875 88.851562 -91.492188 91 -94.109375 C 93.144531 -96.734375 95.222656 -99.390625 97.234375 -102.078125 C 97.640625 -102.609375 98.445312 -103.878906 99.65625 -105.890625 C 100.863281 -107.910156 102.101562 -109.859375 103.375 -111.734375 C 104.65625 -113.617188 105.429688 -114.492188 105.703125 -114.359375 C 105.703125 -114.359375 105.429688 -113.753906 104.890625 -112.546875 C 104.359375 -111.335938 104.09375 -110.664062 104.09375 -110.53125 C 105.164062 -112.675781 106.238281 -114.820312 107.3125 -116.96875 C 108.382812 -119.113281 109.320312 -121.265625 110.125 -123.421875 L 110.125 -123.609375 L 110.328125 -123.8125 L 110.53125 -124.421875 C 111.46875 -126.429688 112.238281 -128.910156 112.84375 -131.859375 C 113.445312 -134.816406 113.644531 -137.503906 113.4375 -139.921875 C 113.238281 -142.335938 112.203125 -143.75 110.328125 -144.15625 C 108.578125 -144.6875 106.726562 -144.007812 104.78125 -142.125 C 102.84375 -140.25 101.335938 -138.773438 100.265625 -137.703125 C 94.492188 -132.066406 89.125 -125.957031 84.15625 -119.375 C 79.1875 -112.800781 74.554688 -106.160156 70.265625 -99.453125 C 67.710938 -95.691406 65.257812 -91.863281 62.90625 -87.96875 C 60.5625 -84.082031 58.25 -80.191406 55.96875 -76.296875 C 54.625 -74.015625 53.113281 -71.832031 51.4375 -69.75 C 49.757812 -67.675781 48.382812 -65.429688 47.3125 -63.015625 C 44.226562 -55.628906 41.109375 -48.347656 37.953125 -41.171875 C 34.796875 -33.992188 32.007812 -26.578125 29.59375 -18.921875 C 28.382812 -15.035156 27.34375 -11.109375 26.46875 -7.140625 C 25.601562 -3.179688 24.832031 0.804688 24.15625 4.828125 L 23.5625 3.625 C 21.675781 5.632812 19.625 6.601562 17.40625 6.53125 C 15.195312 6.46875 13.148438 5.734375 11.265625 4.328125 C 9.390625 2.921875 7.984375 1.144531 7.046875 -1 C 5.566406 -4.363281 4.960938 -8.222656 5.234375 -12.578125 C 5.503906 -16.941406 5.707031 -20.867188 5.84375 -24.359375 C 6.101562 -28.648438 6.398438 -32.910156 6.734375 -37.140625 C 7.078125 -41.367188 7.71875 -45.566406 8.65625 -49.734375 C 9.0625 -51.472656 9.566406 -53.113281 10.171875 -54.65625 C 10.773438 -56.195312 11.34375 -57.773438 11.875 -59.390625 C 12.007812 -59.660156 12.144531 -60.363281 12.28125 -61.5 C 12.414062 -62.644531 12.582031 -63.785156 12.78125 -64.921875 C 12.988281 -66.066406 13.15625 -66.640625 13.28125 -66.640625 C 13.28125 -66.367188 13.347656 -66.164062 13.484375 -66.03125 C 13.484375 -66.300781 13.515625 -66.535156 13.578125 -66.734375 C 13.648438 -66.941406 13.6875 -67.175781 13.6875 -67.4375 C 13.414062 -66.769531 13.28125 -66.738281 13.28125 -67.34375 C 13.28125 -67.945312 13.347656 -68.6875 13.484375 -69.5625 C 13.617188 -70.4375 13.6875 -70.875 13.6875 -70.875 C 13.957031 -71.945312 14.257812 -73.050781 14.59375 -74.1875 C 14.925781 -75.332031 15.226562 -76.375 15.5 -77.3125 C 16.175781 -79.320312 16.75 -81.265625 17.21875 -83.140625 C 17.6875 -85.023438 18.054688 -86.972656 18.328125 -88.984375 C 18.453125 -89.390625 18.78125 -90.5625 19.3125 -92.5 C 19.851562 -94.445312 20.5625 -96.628906 21.4375 -99.046875 C 22.3125 -101.460938 23.117188 -103.578125 23.859375 -105.390625 C 24.597656 -107.203125 25.234375 -108.039062 25.765625 -107.90625 C 26.035156 -107.769531 26.035156 -107.5 25.765625 -107.09375 C 25.503906 -106.695312 25.4375 -106.429688 25.5625 -106.296875 L 26.984375 -110.734375 C 26.847656 -110.734375 27.210938 -111.835938 28.078125 -114.046875 C 28.953125 -116.265625 30.023438 -118.847656 31.296875 -121.796875 C 32.578125 -124.753906 33.785156 -127.441406 34.921875 -129.859375 C 36.066406 -132.273438 36.707031 -133.679688 36.84375 -134.078125 C 38.71875 -137.441406 40.460938 -140.695312 42.078125 -143.84375 C 43.691406 -147 45.972656 -149.785156 48.921875 -152.203125 C 50.128906 -153.140625 51.4375 -154.476562 52.84375 -156.21875 C 54.257812 -157.96875 55.867188 -159.445312 57.671875 -160.65625 C 59.484375 -161.863281 61.46875 -162.066406 63.625 -161.265625 C 65.09375 -160.722656 66.460938 -159.515625 67.734375 -157.640625 C 69.015625 -155.765625 69.722656 -154.019531 69.859375 -152.40625 C 69.859375 -151.195312 69.625 -150.359375 69.15625 -149.890625 C 68.6875 -149.421875 68.113281 -148.847656 67.4375 -148.171875 C 67.707031 -148.441406 68.046875 -148.578125 68.453125 -148.578125 C 68.585938 -148.578125 68.25 -147.972656 67.4375 -146.765625 C 66.632812 -145.554688 65.765625 -144.414062 64.828125 -143.34375 C 63.890625 -142.269531 63.285156 -141.734375 63.015625 -141.734375 C 62.878906 -141.734375 62.976562 -142 63.3125 -142.53125 C 63.65625 -143.070312 63.957031 -143.613281 64.21875 -144.15625 C 60.59375 -139.1875 57.335938 -134.015625 54.453125 -128.640625 C 51.566406 -123.273438 48.914062 -117.773438 46.5 -112.140625 C 47.039062 -113.210938 47.878906 -114.890625 49.015625 -117.171875 C 50.160156 -119.453125 51.367188 -121.867188 52.640625 -124.421875 C 53.921875 -126.972656 55.0625 -129.1875 56.0625 -131.0625 C 57.070312 -132.945312 57.78125 -133.953125 58.1875 -134.078125 C 57.914062 -133.953125 57.242188 -132.8125 56.171875 -130.65625 C 55.097656 -128.507812 53.851562 -125.992188 52.4375 -123.109375 C 51.03125 -120.222656 49.789062 -117.601562 48.71875 -115.25 C 47.644531 -112.90625 46.972656 -111.535156 46.703125 -111.140625 C 44.960938 -107.109375 43.351562 -103.078125 41.875 -99.046875 C 40.394531 -95.023438 39.050781 -90.867188 37.84375 -86.578125 C 36.769531 -82.546875 35.765625 -78.515625 34.828125 -74.484375 C 33.890625 -70.460938 32.882812 -66.4375 31.8125 -62.40625 C 30.875 -59.1875 29.863281 -55.832031 28.78125 -52.34375 C 27.707031 -48.851562 26.90625 -45.5 26.375 -42.28125 C 26.644531 -42.8125 26.910156 -43.210938 27.171875 -43.484375 C 27.304688 -43.617188 27.273438 -42.878906 27.078125 -41.265625 C 26.878906 -39.660156 26.710938 -38.019531 26.578125 -36.34375 C 26.441406 -34.664062 26.375 -33.691406 26.375 -33.421875 L 25.5625 -25.765625 C 29.863281 -40.535156 35.503906 -54.796875 42.484375 -68.546875 C 49.460938 -82.304688 57.242188 -95.492188 65.828125 -108.109375 C 62.609375 -103.546875 59.488281 -98.847656 56.46875 -94.015625 C 53.445312 -89.179688 50.53125 -84.285156 47.71875 -79.328125 C 46.375 -76.773438 45.0625 -74.253906 43.78125 -71.765625 C 42.507812 -69.285156 41.269531 -66.769531 40.0625 -64.21875 C 39.125 -62.476562 37.914062 -60.332031 36.4375 -57.78125 C 34.957031 -55.226562 34.085938 -53.015625 33.828125 -51.140625 C 34.085938 -52.878906 34.753906 -54.6875 35.828125 -56.5625 C 36.910156 -58.445312 37.785156 -60.128906 38.453125 -61.609375 C 39.253906 -63.484375 40.125 -65.359375 41.0625 -67.234375 C 42.007812 -69.117188 42.953125 -70.929688 43.890625 -72.671875 C 45.628906 -76.035156 47.40625 -79.359375 49.21875 -82.640625 C 51.03125 -85.929688 52.878906 -89.1875 54.765625 -92.40625 C 59.054688 -99.113281 63.515625 -105.753906 68.140625 -112.328125 C 72.773438 -118.910156 77.578125 -125.289062 82.546875 -131.46875 C 87.378906 -137.507812 92.546875 -143.28125 98.046875 -148.78125 C 100.191406 -150.789062 102.671875 -153.070312 105.484375 -155.625 C 108.304688 -158.175781 111.195312 -159.71875 114.15625 -160.25 C 117.914062 -160.925781 121.171875 -160.253906 123.921875 -158.234375 C 126.671875 -156.222656 128.882812 -153.609375 130.5625 -150.390625 C 132.238281 -147.171875 133.210938 -143.953125 133.484375 -140.734375 C 134.421875 -133.484375 133.710938 -126.300781 131.359375 -119.1875 C 129.015625 -112.070312 125.523438 -105.359375 120.890625 -99.046875 C 116.265625 -92.742188 110.960938 -87.175781 104.984375 -82.34375 C 99.015625 -77.507812 92.878906 -73.6875 86.578125 -70.875 Z M 95.421875 -20.53125 C 96.097656 -22.144531 96.90625 -24.125 97.84375 -26.46875 C 98.78125 -28.820312 99.316406 -30.867188 99.453125 -32.609375 L 98.453125 -30.203125 C 96.703125 -26.710938 94.851562 -23.523438 92.90625 -20.640625 C 90.96875 -17.753906 88.722656 -14.832031 86.171875 -11.875 L 79.328125 -4.625 C 80.535156 -5.570312 81.875 -6.410156 83.34375 -7.140625 C 84.820312 -7.878906 86.234375 -8.851562 87.578125 -10.0625 C 89.054688 -11.40625 90.566406 -13.015625 92.109375 -14.890625 C 93.648438 -16.773438 94.753906 -18.65625 95.421875 -20.53125 Z M 120.390625 -106.296875 C 119.316406 -104.285156 118.140625 -102.375 116.859375 -100.5625 C 115.585938 -98.75 114.21875 -96.90625 112.75 -95.03125 C 113.6875 -96.101562 114.554688 -97.109375 115.359375 -98.046875 C 116.160156 -98.984375 117.035156 -99.921875 117.984375 -100.859375 C 120.523438 -103.679688 122.5 -106.5 123.90625 -109.3125 C 125.320312 -112.132812 126.5 -115.222656 127.4375 -118.578125 C 126.5 -116.429688 125.359375 -114.285156 124.015625 -112.140625 C 122.671875 -109.992188 121.460938 -108.046875 120.390625 -106.296875 Z M 14.5 -43.890625 C 15.03125 -44.960938 15.5625 -46.066406 16.09375 -47.203125 C 16.632812 -48.347656 16.972656 -49.59375 17.109375 -50.9375 C 17.242188 -51.601562 17.3125 -52.203125 17.3125 -52.734375 C 17.3125 -53.273438 17.3125 -53.816406 17.3125 -54.359375 C 16.78125 -53.421875 16.210938 -52.414062 15.609375 -51.34375 C 15.003906 -50.269531 14.566406 -49.257812 14.296875 -48.3125 C 13.753906 -46.164062 13.347656 -43.75 13.078125 -41.0625 C 12.816406 -38.382812 12.753906 -35.90625 12.890625 -33.625 C 12.753906 -35.101562 12.851562 -36.847656 13.1875 -38.859375 C 13.519531 -40.867188 13.957031 -42.546875 14.5 -43.890625 Z M 42.890625 -103.28125 L 43.28125 -104.484375 C 43.019531 -103.953125 42.890625 -103.550781 42.890625 -103.28125 Z M 81.53125 -129.25 L 80.125 -127.84375 Z M 46.109375 -111.328125 L 46.5 -112.140625 C 46.238281 -111.867188 46.109375 -111.597656 46.109375 -111.328125 Z M 46.109375 -111.328125 "/></g></g></g><g fill="#000000" fill-opacity="1"><g transform="translate(195.796307, 481.283642)"><g><path d="M 52.75 -49.53125 C 53.15625 -47.644531 52.71875 -45.695312 51.4375 -43.6875 C 50.164062 -41.675781 48.992188 -40 47.921875 -38.65625 C 46.171875 -36.101562 44.457031 -33.617188 42.78125 -31.203125 C 41.101562 -28.785156 39.328125 -26.367188 37.453125 -23.953125 C 35.429688 -21.273438 33.113281 -18.191406 30.5 -14.703125 C 27.882812 -11.210938 24.832031 -9.0625 21.34375 -8.25 C 20.800781 -8.25 19.789062 -8.414062 18.3125 -8.75 C 16.84375 -9.09375 15.46875 -9.5 14.1875 -9.96875 C 12.914062 -10.4375 12.28125 -10.875 12.28125 -11.28125 L 12.6875 -11.28125 C 11.875 -11.675781 11.566406 -11.671875 11.765625 -11.265625 C 11.972656 -10.867188 11.472656 -11.140625 10.265625 -12.078125 C 9.328125 -12.753906 8.554688 -13.492188 7.953125 -14.296875 C 7.347656 -15.097656 6.710938 -15.96875 6.046875 -16.90625 C 4.960938 -18.382812 3.816406 -19.863281 2.609375 -21.34375 C 1.410156 -22.820312 0.609375 -24.429688 0.203125 -26.171875 C 0.203125 -26.578125 0.164062 -27.445312 0.09375 -28.78125 C 0.03125 -30.125 0.0664062 -31.398438 0.203125 -32.609375 C 0.335938 -33.816406 0.671875 -34.421875 1.203125 -34.421875 C 1.472656 -34.421875 1.539062 -34.253906 1.40625 -33.921875 C 1.269531 -33.585938 1.269531 -33.421875 1.40625 -33.421875 L 2.015625 -37.046875 C 1.742188 -36.640625 1.539062 -36.367188 1.40625 -36.234375 C 1.269531 -36.234375 1.335938 -36.972656 1.609375 -38.453125 C 1.878906 -39.929688 2.25 -41.675781 2.71875 -43.6875 C 3.1875 -45.695312 3.617188 -47.507812 4.015625 -49.125 C 4.421875 -50.738281 4.691406 -51.675781 4.828125 -51.9375 C 5.640625 -54.082031 6.410156 -56.226562 7.140625 -58.375 C 7.878906 -60.53125 9.257812 -62.210938 11.28125 -63.421875 C 12.75 -64.492188 14.421875 -64.960938 16.296875 -64.828125 C 18.179688 -64.691406 20.0625 -64.222656 21.9375 -63.421875 C 22.75 -63.148438 23.992188 -62.578125 25.671875 -61.703125 C 27.347656 -60.828125 28.1875 -59.851562 28.1875 -58.78125 C 28.1875 -58.25 27.984375 -57.847656 27.578125 -57.578125 C 27.179688 -57.304688 26.847656 -57.039062 26.578125 -56.78125 C 26.710938 -56.90625 26.976562 -56.96875 27.375 -56.96875 C 27.644531 -56.84375 27.3125 -56.039062 26.375 -54.5625 C 25.4375 -53.082031 24.832031 -52.410156 24.5625 -52.546875 C 24.425781 -52.546875 24.425781 -52.742188 24.5625 -53.140625 C 24.695312 -53.546875 24.832031 -53.882812 24.96875 -54.15625 C 21.207031 -47.976562 18.050781 -41.203125 15.5 -33.828125 C 15.90625 -34.765625 16.578125 -36.335938 17.515625 -38.546875 C 18.453125 -40.765625 19.421875 -42.847656 20.421875 -44.796875 C 21.429688 -46.742188 22.003906 -47.648438 22.140625 -47.515625 C 22.273438 -47.515625 21.941406 -46.675781 21.140625 -45 C 20.335938 -43.320312 19.363281 -41.207031 18.21875 -38.65625 C 17.082031 -36.101562 16.078125 -33.519531 15.203125 -30.90625 C 14.328125 -28.289062 13.851562 -25.941406 13.78125 -23.859375 C 13.71875 -21.773438 14.359375 -20.398438 15.703125 -19.734375 C 16.773438 -19.191406 18.015625 -19.253906 19.421875 -19.921875 C 20.835938 -20.597656 22.210938 -21.472656 23.546875 -22.546875 C 24.890625 -23.617188 25.898438 -24.425781 26.578125 -24.96875 C 28.453125 -26.4375 30.5625 -28.078125 32.90625 -29.890625 C 35.257812 -31.703125 37.109375 -33.484375 38.453125 -35.234375 C 38.179688 -34.960938 37.710938 -34.828125 37.046875 -34.828125 C 36.910156 -35.097656 37.273438 -35.96875 38.140625 -37.4375 C 39.015625 -38.914062 40.15625 -40.59375 41.5625 -42.46875 C 42.976562 -44.351562 44.320312 -46.066406 45.59375 -47.609375 C 46.875 -49.148438 47.71875 -50.054688 48.125 -50.328125 C 48.789062 -50.867188 49.691406 -51.207031 50.828125 -51.34375 C 51.972656 -51.476562 52.613281 -50.875 52.75 -49.53125 Z M 17.515625 -74.890625 C 17.515625 -74.890625 17.3125 -75.191406 16.90625 -75.796875 C 16.507812 -76.398438 16.3125 -76.769531 16.3125 -76.90625 C 16.3125 -77.175781 16.273438 -77.847656 16.203125 -78.921875 C 16.140625 -79.992188 16.207031 -81 16.40625 -81.9375 C 16.601562 -82.875 17.039062 -83.144531 17.71875 -82.75 C 17.71875 -83.019531 18.085938 -83.585938 18.828125 -84.453125 C 19.566406 -85.328125 19.597656 -85.09375 18.921875 -83.75 C 20.671875 -86.03125 22.28125 -88.78125 23.75 -92 L 21.34375 -88.390625 C 22.28125 -90.265625 23.285156 -92.644531 24.359375 -95.53125 C 25.429688 -98.414062 26.035156 -100.191406 26.171875 -100.859375 C 26.171875 -100.992188 26.132812 -101.394531 26.0625 -102.0625 C 26 -102.738281 26.035156 -103.144531 26.171875 -103.28125 C 24.023438 -104.082031 23.351562 -105.019531 24.15625 -106.09375 C 24.96875 -107.164062 25.84375 -108.039062 26.78125 -108.71875 C 26.375 -108.71875 26.101562 -108.851562 25.96875 -109.125 C 25.570312 -109.519531 25.773438 -109.851562 26.578125 -110.125 C 27.378906 -110.394531 27.914062 -110.597656 28.1875 -110.734375 C 29.664062 -111.398438 31.207031 -111.597656 32.8125 -111.328125 C 34.425781 -111.066406 35.90625 -110.597656 37.25 -109.921875 C 38.320312 -109.253906 39.328125 -108.25 40.265625 -106.90625 C 41.203125 -105.5625 41.875 -104.285156 42.28125 -103.078125 C 42.6875 -101.734375 42.519531 -100.390625 41.78125 -99.046875 C 41.039062 -97.710938 40.203125 -96.640625 39.265625 -95.828125 C 38.859375 -95.429688 38.351562 -95.0625 37.75 -94.71875 C 37.144531 -94.382812 36.570312 -94.019531 36.03125 -93.625 C 35.5 -92.945312 35.164062 -92.171875 35.03125 -91.296875 C 34.894531 -90.429688 34.5625 -89.660156 34.03125 -88.984375 C 33.757812 -88.453125 33.351562 -88.050781 32.8125 -87.78125 C 32.28125 -87.507812 31.878906 -87.109375 31.609375 -86.578125 C 30.804688 -86.035156 30.738281 -85.429688 31.40625 -84.765625 C 30.601562 -84.359375 29.929688 -83.882812 29.390625 -83.34375 C 28.453125 -81.738281 27.578125 -80.429688 26.765625 -79.421875 C 25.960938 -78.410156 24.957031 -77.4375 23.75 -76.5 C 24.832031 -77.175781 25.804688 -77.878906 26.671875 -78.609375 C 27.546875 -79.347656 28.453125 -80.390625 29.390625 -81.734375 C 31.003906 -83.753906 32.953125 -85.234375 35.234375 -86.171875 C 34.296875 -85.097656 33.554688 -83.957031 33.015625 -82.75 C 32.484375 -81.539062 31.613281 -80.53125 30.40625 -79.71875 C 29.59375 -79.320312 29.148438 -79.222656 29.078125 -79.421875 C 29.015625 -79.617188 28.984375 -79.75 28.984375 -79.8125 C 28.984375 -79.882812 28.515625 -79.519531 27.578125 -78.71875 C 27.578125 -78.71875 27.742188 -78.75 28.078125 -78.8125 C 28.421875 -78.882812 28.457031 -78.785156 28.1875 -78.515625 C 27.25 -77.710938 26.304688 -76.773438 25.359375 -75.703125 C 24.421875 -74.628906 23.347656 -73.820312 22.140625 -73.28125 C 21.609375 -73.144531 21.070312 -72.941406 20.53125 -72.671875 C 20 -72.410156 19.394531 -72.410156 18.71875 -72.671875 C 18.050781 -73.078125 17.75 -73.476562 17.8125 -73.875 C 17.882812 -74.28125 17.785156 -74.617188 17.515625 -74.890625 Z M 13.6875 -26.984375 C 13.820312 -27.242188 13.820312 -27.304688 13.6875 -27.171875 L 13.28125 -25.5625 L 13.6875 -26.78125 Z M 20.328125 -86.765625 L 21.140625 -87.984375 C 21.003906 -87.578125 20.832031 -87.269531 20.625 -87.0625 C 20.425781 -86.863281 20.328125 -86.765625 20.328125 -86.765625 Z M 18.328125 -82.953125 C 18.191406 -82.816406 18.054688 -82.75 17.921875 -82.75 C 18.054688 -82.75 18.125 -82.710938 18.125 -82.640625 C 18.125 -82.578125 18.125 -82.546875 18.125 -82.546875 C 18.257812 -82.679688 18.328125 -82.816406 18.328125 -82.953125 Z M 18.328125 -82.953125 "/></g></g></g><g fill="#000000" fill-opacity="1"><g transform="translate(233.848512, 481.283642)"><g><path d="M 83.34375 -47.921875 C 83.613281 -46.304688 83.144531 -44.554688 81.9375 -42.671875 C 80.726562 -40.796875 79.316406 -38.984375 77.703125 -37.234375 C 76.097656 -35.492188 74.894531 -34.085938 74.09375 -33.015625 C 71.945312 -30.203125 69.796875 -27.347656 67.640625 -24.453125 C 65.492188 -21.566406 63.210938 -18.785156 60.796875 -16.109375 C 59.585938 -14.898438 58.144531 -13.488281 56.46875 -11.875 C 54.789062 -10.269531 53.007812 -9.03125 51.125 -8.15625 C 49.25 -7.28125 47.375 -7.113281 45.5 -7.65625 C 45.09375 -7.789062 44.1875 -8.222656 42.78125 -8.953125 C 41.375 -9.691406 40.066406 -10.5 38.859375 -11.375 C 37.648438 -12.25 37.046875 -12.820312 37.046875 -13.09375 L 37.640625 -12.6875 L 36.4375 -13.890625 C 36.976562 -13.085938 36.910156 -12.953125 36.234375 -13.484375 C 35.566406 -14.023438 35.164062 -14.296875 35.03125 -14.296875 C 34.488281 -14.828125 34.015625 -15.460938 33.609375 -16.203125 C 33.210938 -16.941406 32.878906 -17.582031 32.609375 -18.125 C 32.078125 -19.195312 31.742188 -20.300781 31.609375 -21.4375 C 31.472656 -22.582031 31.40625 -23.691406 31.40625 -24.765625 C 31.40625 -25.835938 31.472656 -26.941406 31.609375 -28.078125 C 31.742188 -29.222656 31.878906 -30.332031 32.015625 -31.40625 C 32.273438 -33.6875 32.503906 -35.898438 32.703125 -38.046875 C 32.910156 -40.191406 33.351562 -42.34375 34.03125 -44.5 C 34.15625 -44.894531 34.617188 -46.066406 35.421875 -48.015625 C 36.234375 -49.960938 37.109375 -51.875 38.046875 -53.75 C 38.984375 -55.632812 39.65625 -56.507812 40.0625 -56.375 C 40.332031 -56.375 40.296875 -56.140625 39.953125 -55.671875 C 39.617188 -55.203125 39.519531 -54.898438 39.65625 -54.765625 L 42.484375 -60.390625 C 42.347656 -60.265625 42.210938 -60.097656 42.078125 -59.890625 C 41.941406 -59.691406 41.738281 -59.523438 41.46875 -59.390625 C 41.332031 -59.523438 41.734375 -60.394531 42.671875 -62 C 43.617188 -63.613281 44.226562 -64.691406 44.5 -65.234375 C 42.476562 -62.953125 40.628906 -60.601562 38.953125 -58.1875 C 37.273438 -55.769531 35.5 -53.351562 33.625 -50.9375 C 32.28125 -49.1875 30.898438 -47.675781 29.484375 -46.40625 C 28.078125 -45.132812 26.90625 -43.691406 25.96875 -42.078125 C 23.820312 -38.453125 21.570312 -34.925781 19.21875 -31.5 C 16.875 -28.082031 14.832031 -24.492188 13.09375 -20.734375 L 12.28125 -22.34375 C 11.070312 -20.863281 9.726562 -20.289062 8.25 -20.625 C 6.78125 -20.96875 5.40625 -21.773438 4.125 -23.046875 C 2.851562 -24.328125 1.878906 -25.503906 1.203125 -26.578125 C 0.265625 -28.179688 -0.132812 -29.6875 0 -31.09375 C 0.132812 -32.507812 0.269531 -34.09375 0.40625 -35.84375 C 0.675781 -37.445312 0.8125 -39.050781 0.8125 -40.65625 C 0.8125 -42.269531 1.078125 -43.953125 1.609375 -45.703125 C 2.285156 -47.847656 2.988281 -49.925781 3.71875 -51.9375 C 4.457031 -53.957031 5.234375 -56.039062 6.046875 -58.1875 C 6.710938 -60.332031 7.414062 -62.441406 8.15625 -64.515625 C 8.894531 -66.597656 9.664062 -68.71875 10.46875 -70.875 C 11.007812 -72.207031 11.679688 -73.644531 12.484375 -75.1875 C 13.285156 -76.738281 13.820312 -78.1875 14.09375 -79.53125 C 14.363281 -80.601562 14.53125 -81.539062 14.59375 -82.34375 C 14.664062 -83.144531 15.367188 -83.953125 16.703125 -84.765625 C 17.910156 -85.429688 19.148438 -85.796875 20.421875 -85.859375 C 21.703125 -85.929688 23.015625 -85.832031 24.359375 -85.5625 C 25.429688 -85.425781 26.640625 -84.957031 27.984375 -84.15625 C 29.328125 -83.351562 30.300781 -82.3125 30.90625 -81.03125 C 31.507812 -79.757812 31.207031 -78.25 30 -76.5 C 29.320312 -75.5625 28.445312 -74.625 27.375 -73.6875 C 26.300781 -72.75 25.363281 -71.742188 24.5625 -70.671875 C 23.625 -69.597656 23.085938 -68.691406 22.953125 -67.953125 C 22.816406 -67.210938 22.546875 -66.171875 22.140625 -64.828125 C 22.003906 -64.023438 21.601562 -63.253906 20.9375 -62.515625 C 20.269531 -61.773438 19.734375 -61.003906 19.328125 -60.203125 C 18.785156 -59.128906 18.28125 -57.921875 17.8125 -56.578125 C 17.34375 -55.234375 16.910156 -53.890625 16.515625 -52.546875 C 16.378906 -51.742188 16.3125 -51.003906 16.3125 -50.328125 C 16.3125 -49.660156 16.242188 -48.925781 16.109375 -48.125 C 15.972656 -45.96875 15.632812 -43.847656 15.09375 -41.765625 C 14.5625 -39.691406 14.160156 -37.582031 13.890625 -35.4375 C 14.023438 -35.832031 14.328125 -36.296875 14.796875 -36.828125 C 15.265625 -37.367188 15.566406 -37.578125 15.703125 -37.453125 C 15.835938 -37.316406 15.535156 -36.675781 14.796875 -35.53125 C 14.054688 -34.394531 13.753906 -33.828125 13.890625 -33.828125 L 25.765625 -51.140625 C 24.421875 -49.390625 23.3125 -47.976562 22.4375 -46.90625 C 21.570312 -45.832031 21.140625 -45.296875 21.140625 -45.296875 C 21.003906 -45.429688 21.707031 -46.535156 23.25 -48.609375 C 24.789062 -50.691406 26.769531 -53.3125 29.1875 -56.46875 C 31.601562 -59.625 34.117188 -62.8125 36.734375 -66.03125 C 39.359375 -69.257812 41.640625 -72.078125 43.578125 -74.484375 C 45.523438 -76.898438 46.769531 -78.378906 47.3125 -78.921875 C 50.257812 -81.609375 53.34375 -82.75 56.5625 -82.34375 C 59.789062 -81.9375 62.078125 -79.382812 63.421875 -74.6875 C 64.492188 -71.332031 64.320312 -68.3125 62.90625 -65.625 C 61.5 -62.945312 59.617188 -60.398438 57.265625 -57.984375 C 54.921875 -55.566406 52.945312 -53.148438 51.34375 -50.734375 C 50 -48.722656 48.789062 -46.578125 47.71875 -44.296875 C 46.644531 -42.015625 45.570312 -39.796875 44.5 -37.640625 C 43.820312 -36.304688 42.910156 -34.394531 41.765625 -31.90625 C 40.628906 -29.425781 39.925781 -27.046875 39.65625 -24.765625 C 39.925781 -26.242188 40.460938 -27.820312 41.265625 -29.5 C 42.078125 -31.175781 42.679688 -32.484375 43.078125 -33.421875 C 44.691406 -37.578125 47.039062 -41.132812 50.125 -44.09375 C 49.457031 -42.75 48.753906 -41.472656 48.015625 -40.265625 C 47.273438 -39.054688 46.570312 -37.847656 45.90625 -36.640625 L 46.90625 -37.84375 C 47.039062 -37.84375 46.941406 -37.269531 46.609375 -36.125 C 46.273438 -34.988281 45.9375 -33.816406 45.59375 -32.609375 C 45.257812 -31.398438 45.023438 -30.734375 44.890625 -30.609375 C 44.492188 -29.398438 44.125 -28.15625 43.78125 -26.875 C 43.445312 -25.601562 43.210938 -24.296875 43.078125 -22.953125 C 42.953125 -22.816406 42.921875 -22.210938 42.984375 -21.140625 C 43.046875 -20.066406 43.078125 -19.53125 43.078125 -19.53125 L 43.28125 -19.328125 C 43.28125 -19.460938 43.546875 -19.5625 44.078125 -19.625 C 44.617188 -19.695312 44.957031 -19.800781 45.09375 -19.9375 C 46.570312 -20.46875 48.046875 -21.335938 49.515625 -22.546875 C 50.992188 -23.753906 52.335938 -24.828125 53.546875 -25.765625 C 55.960938 -27.648438 58.34375 -29.628906 60.6875 -31.703125 C 63.039062 -33.785156 65.359375 -35.832031 67.640625 -37.84375 C 69.390625 -39.457031 71.269531 -41.066406 73.28125 -42.671875 C 75.289062 -44.285156 76.96875 -45.96875 78.3125 -47.71875 C 78.988281 -48.65625 79.863281 -49.523438 80.9375 -50.328125 C 82.007812 -51.140625 82.8125 -50.335938 83.34375 -47.921875 Z M 83.34375 -47.921875 "/></g></g></g><g fill="#000000" fill-opacity="1"><g transform="translate(302.50356, 481.283642)"><g><path d="M 102.671875 -48.3125 C 103.078125 -46.4375 102.640625 -44.992188 101.359375 -43.984375 C 100.085938 -42.984375 98.78125 -41.945312 97.4375 -40.875 L 81.140625 -28.390625 C 78.179688 -25.972656 75.222656 -23.585938 72.265625 -21.234375 C 69.316406 -18.890625 66.4375 -16.441406 63.625 -13.890625 C 62.28125 -12.816406 60.867188 -11.707031 59.390625 -10.5625 C 57.910156 -9.425781 56.566406 -8.253906 55.359375 -7.046875 C 54.148438 -5.703125 53.3125 -4.222656 52.84375 -2.609375 C 52.375 -1.003906 51.875 0.671875 51.34375 2.421875 C 47.988281 13.960938 44.5 25.601562 40.875 37.34375 C 37.25 49.09375 32.414062 60.203125 26.375 70.671875 C 24.5 74.023438 22.484375 77.3125 20.328125 80.53125 C 18.179688 83.75 14.960938 85.894531 10.671875 86.96875 C 5.703125 88.175781 1.273438 87.171875 -2.609375 83.953125 C -6.503906 80.734375 -9.394531 76.972656 -11.28125 72.671875 C -13.289062 67.710938 -13.554688 62.953125 -12.078125 58.390625 C -10.597656 53.828125 -8.382812 49.460938 -5.4375 45.296875 C -2.882812 41.671875 -0.269531 38.078125 2.40625 34.515625 C 5.09375 30.960938 7.914062 27.507812 10.875 24.15625 C 12.882812 21.875 14.992188 19.691406 17.203125 17.609375 C 19.421875 15.535156 21.601562 13.488281 23.75 11.46875 C 25.90625 9.457031 28.253906 7.410156 30.796875 5.328125 C 33.347656 3.253906 35.566406 1.078125 37.453125 -1.203125 C 39.328125 -3.484375 40.632812 -6.503906 41.375 -10.265625 C 42.113281 -14.023438 42.953125 -17.378906 43.890625 -20.328125 L 48.3125 -36.03125 C 46.164062 -32.28125 43.785156 -28.625 41.171875 -25.0625 C 38.554688 -21.507812 35.972656 -17.988281 33.421875 -14.5 C 31.140625 -11.269531 28.753906 -7.941406 26.265625 -4.515625 C 23.785156 -1.097656 20.867188 1.613281 17.515625 3.625 C 16.035156 4.5625 14.554688 5.164062 13.078125 5.4375 C 11.609375 5.707031 10.132812 5.503906 8.65625 4.828125 C 8.25 4.554688 7.304688 3.816406 5.828125 2.609375 C 4.359375 1.410156 3.019531 0.109375 1.8125 -1.296875 C 0.601562 -2.710938 0.132812 -3.625 0.40625 -4.03125 C 0.675781 -3.757812 0.875 -3.625 1 -3.625 L 0.40625 -5.03125 C 0.539062 -4.363281 0.4375 -4.296875 0.09375 -4.828125 C -0.238281 -5.367188 -0.601562 -6.007812 -1 -6.75 C -1.40625 -7.488281 -1.675781 -7.921875 -1.8125 -8.046875 C -2.21875 -9.390625 -2.484375 -10.765625 -2.609375 -12.171875 C -2.742188 -13.585938 -2.8125 -14.96875 -2.8125 -16.3125 C -2.8125 -18.457031 -2.742188 -20.632812 -2.609375 -22.84375 C -2.484375 -25.0625 -2.21875 -27.242188 -1.8125 -29.390625 C -1.539062 -31.273438 -1.003906 -33.117188 -0.203125 -34.921875 C 0.597656 -36.734375 1.472656 -38.445312 2.421875 -40.0625 C 2.554688 -40.332031 2.957031 -41.035156 3.625 -42.171875 C 4.289062 -43.316406 5.023438 -44.425781 5.828125 -45.5 C 6.640625 -46.570312 7.179688 -47.039062 7.453125 -46.90625 C 7.585938 -46.90625 7.484375 -46.671875 7.140625 -46.203125 C 6.804688 -45.734375 6.707031 -45.429688 6.84375 -45.296875 L 10.265625 -50.328125 C 9.859375 -49.929688 9.523438 -49.734375 9.265625 -49.734375 C 8.859375 -49.992188 9.5625 -51.234375 11.375 -53.453125 C 13.1875 -55.671875 15.367188 -58.222656 17.921875 -61.109375 C 20.472656 -63.992188 22.851562 -66.609375 25.0625 -68.953125 C 27.28125 -71.304688 28.65625 -72.679688 29.1875 -73.078125 C 30.800781 -74.691406 32.476562 -76.203125 34.21875 -77.609375 C 35.96875 -79.015625 37.847656 -80.191406 39.859375 -81.140625 C 40.929688 -81.804688 41.867188 -82.140625 42.671875 -82.140625 C 43.484375 -82.140625 44.359375 -82.207031 45.296875 -82.34375 C 46.097656 -82.476562 46.734375 -82.710938 47.203125 -83.046875 C 47.679688 -83.378906 48.253906 -83.613281 48.921875 -83.75 C 51.335938 -84.425781 54.085938 -84.359375 57.171875 -83.546875 C 60.265625 -82.742188 62.546875 -81.335938 64.015625 -79.328125 C 64.828125 -78.515625 65.398438 -77.269531 65.734375 -75.59375 C 66.066406 -73.914062 66.03125 -72.375 65.625 -70.96875 C 65.226562 -69.5625 64.15625 -68.789062 62.40625 -68.65625 C 61.875 -68.65625 61.40625 -68.820312 61 -69.15625 C 60.59375 -69.488281 60.125 -69.789062 59.59375 -70.0625 L 60.203125 -69.453125 C 60.203125 -69.453125 59.191406 -69.484375 57.171875 -69.546875 C 55.160156 -69.617188 53.550781 -69.519531 52.34375 -69.25 L 54.96875 -70.265625 C 50.9375 -69.585938 47.140625 -67.769531 43.578125 -64.8125 C 40.023438 -61.863281 36.769531 -58.476562 33.8125 -54.65625 C 30.863281 -50.832031 28.316406 -47.378906 26.171875 -44.296875 C 26.578125 -44.828125 27.484375 -45.929688 28.890625 -47.609375 C 30.296875 -49.285156 31.867188 -51.195312 33.609375 -53.34375 C 35.359375 -55.5 37.039062 -57.445312 38.65625 -59.1875 C 40.269531 -60.9375 41.546875 -62.210938 42.484375 -63.015625 C 41.546875 -62.210938 40.269531 -60.835938 38.65625 -58.890625 C 37.039062 -56.941406 35.359375 -54.894531 33.609375 -52.75 C 31.867188 -50.601562 30.394531 -48.722656 29.1875 -47.109375 C 27.976562 -45.492188 27.242188 -44.554688 26.984375 -44.296875 C 24.296875 -40.398438 21.742188 -36.300781 19.328125 -32 C 16.910156 -27.707031 14.960938 -23.28125 13.484375 -18.71875 C 13.222656 -18.050781 12.851562 -16.707031 12.375 -14.6875 C 11.90625 -12.675781 11.570312 -10.628906 11.375 -8.546875 C 11.175781 -6.472656 11.378906 -4.96875 11.984375 -4.03125 C 12.585938 -3.09375 13.757812 -3.289062 15.5 -4.625 C 18.1875 -6.507812 20.867188 -8.992188 23.546875 -12.078125 C 26.234375 -15.160156 28.585938 -18.046875 30.609375 -20.734375 C 30.335938 -20.460938 30.132812 -20.328125 30 -20.328125 C 29.863281 -20.328125 30.0625 -20.796875 30.59375 -21.734375 C 31.132812 -22.679688 31.773438 -23.691406 32.515625 -24.765625 C 33.253906 -25.835938 33.691406 -26.507812 33.828125 -26.78125 L 39.265625 -35.03125 C 41.140625 -37.71875 43.015625 -40.503906 44.890625 -43.390625 C 46.773438 -46.273438 48.65625 -49.054688 50.53125 -51.734375 C 51.332031 -52.816406 52.335938 -54.226562 53.546875 -55.96875 C 54.753906 -57.71875 55.960938 -58.859375 57.171875 -59.390625 C 59.992188 -60.597656 62.742188 -60.734375 65.421875 -59.796875 C 68.109375 -58.859375 70.085938 -57.25 71.359375 -54.96875 C 72.640625 -52.6875 72.410156 -50.132812 70.671875 -47.3125 C 67.984375 -42.613281 65.328125 -37.78125 62.703125 -32.8125 C 60.085938 -27.851562 57.976562 -22.820312 56.375 -17.71875 C 56.644531 -17.582031 57.414062 -17.984375 58.6875 -18.921875 C 59.957031 -19.859375 61.398438 -21.03125 63.015625 -22.4375 C 64.628906 -23.851562 66.140625 -25.164062 67.546875 -26.375 C 68.953125 -27.582031 69.859375 -28.390625 70.265625 -28.796875 C 72.546875 -30.671875 74.789062 -32.476562 77 -34.21875 C 79.21875 -35.96875 81.46875 -37.648438 83.75 -39.265625 C 85.5 -40.597656 87.242188 -41.832031 88.984375 -42.96875 C 90.734375 -44.113281 92.476562 -45.359375 94.21875 -46.703125 C 94.894531 -47.242188 95.835938 -48.015625 97.046875 -49.015625 C 98.253906 -50.023438 99.425781 -50.664062 100.5625 -50.9375 C 101.707031 -51.207031 102.410156 -50.332031 102.671875 -48.3125 Z M 31.40625 20.125 C 31.945312 18.65625 32.453125 17.179688 32.921875 15.703125 C 33.390625 14.222656 33.820312 12.75 34.21875 11.28125 C 29.65625 15.4375 25.394531 19.757812 21.4375 24.25 C 17.476562 28.75 13.550781 33.484375 9.65625 38.453125 C 7.644531 41.140625 5.332031 44.296875 2.71875 47.921875 C 0.101562 51.546875 -1.972656 55.335938 -3.515625 59.296875 C -5.066406 63.253906 -5.304688 67.113281 -4.234375 70.875 C -3.285156 74.363281 -2.039062 76.40625 -0.5 77 C 1.039062 77.601562 2.679688 77.234375 4.421875 75.890625 C 6.171875 74.554688 7.882812 72.75 9.5625 70.46875 C 11.238281 68.1875 12.710938 65.9375 13.984375 63.71875 C 15.265625 61.5 16.171875 59.789062 16.703125 58.59375 C 19.523438 52.6875 22.007812 46.710938 24.15625 40.671875 C 26.300781 34.628906 28.453125 28.519531 30.609375 22.34375 C 30.472656 22.476562 30.570312 22.109375 30.90625 21.234375 C 31.238281 20.367188 31.40625 20 31.40625 20.125 Z M 30.609375 34.21875 L 30.609375 33.625 C 29.128906 37.644531 27.484375 41.566406 25.671875 45.390625 C 23.859375 49.222656 22.007812 53.082031 20.125 56.96875 C 21.070312 55.363281 22.082031 53.785156 23.15625 52.234375 C 24.226562 50.691406 25.234375 49.050781 26.171875 47.3125 C 27.109375 45.164062 27.945312 42.984375 28.6875 40.765625 C 29.425781 38.554688 30.066406 36.375 30.609375 34.21875 Z M 20.53125 -40.265625 L 24.359375 -46.5 C 24.085938 -45.96875 23.71875 -45.46875 23.25 -45 C 22.78125 -44.53125 22.410156 -44.160156 22.140625 -43.890625 C 20.671875 -42.273438 19.460938 -40.660156 18.515625 -39.046875 C 17.578125 -37.441406 16.707031 -35.703125 15.90625 -33.828125 C 16.707031 -34.898438 17.546875 -35.972656 18.421875 -37.046875 C 19.296875 -38.117188 20 -39.191406 20.53125 -40.265625 Z M 20.328125 -35.03125 L 22.75 -39.0625 C 21.132812 -36.914062 19.722656 -34.695312 18.515625 -32.40625 Z M 20.328125 -35.03125 "/></g></g></g><g fill="#000000" fill-opacity="1"><g transform="translate(390.486721, 481.283642)"><g><path d="M 77.109375 -49.734375 C 77.515625 -48.921875 77.613281 -48.242188 77.40625 -47.703125 C 77.207031 -47.171875 76.835938 -46.570312 76.296875 -45.90625 L 70.0625 -37.640625 L 59.1875 -23.5625 C 57.84375 -21.8125 56.363281 -20.0625 54.75 -18.3125 C 53.144531 -16.570312 51.601562 -14.765625 50.125 -12.890625 C 48.65625 -10.867188 47.210938 -8.816406 45.796875 -6.734375 C 44.390625 -4.660156 42.816406 -2.6875 41.078125 -0.8125 C 39.328125 1.070312 37.378906 2.953125 35.234375 4.828125 C 33.085938 6.710938 30.804688 8.320312 28.390625 9.65625 C 25.171875 11.40625 21.75 11.742188 18.125 10.671875 C 15.570312 9.992188 13.15625 8.882812 10.875 7.34375 C 8.59375 5.800781 6.578125 4.023438 4.828125 2.015625 C 4.296875 1.335938 3.828125 0.726562 3.421875 0.1875 C 3.015625 -0.34375 2.75 -1.007812 2.625 -1.8125 C 2.488281 -2.476562 2.382812 -3.144531 2.3125 -3.8125 C 2.25 -4.488281 2.21875 -5.164062 2.21875 -5.84375 C 2.082031 -7.050781 2.179688 -8.15625 2.515625 -9.15625 C 2.847656 -10.164062 3.082031 -11.273438 3.21875 -12.484375 C 3.488281 -13.828125 3.859375 -15.101562 4.328125 -16.3125 C 4.796875 -17.519531 5.097656 -18.789062 5.234375 -20.125 C 5.503906 -21.601562 5.804688 -22.976562 6.140625 -24.25 C 6.472656 -25.53125 6.707031 -26.84375 6.84375 -28.1875 C 6.976562 -29.394531 7.007812 -30.632812 6.9375 -31.90625 C 6.875 -33.1875 6.976562 -34.429688 7.25 -35.640625 C 7.519531 -36.441406 7.890625 -37.242188 8.359375 -38.046875 C 8.828125 -38.859375 9.195312 -39.734375 9.46875 -40.671875 C 9.195312 -40.128906 8.859375 -39.554688 8.453125 -38.953125 C 8.054688 -38.347656 7.789062 -37.78125 7.65625 -37.25 C 7.382812 -36.4375 7.113281 -35.628906 6.84375 -34.828125 C 6.570312 -34.023438 6.304688 -33.285156 6.046875 -32.609375 C 5.773438 -31.804688 5.535156 -31.035156 5.328125 -30.296875 C 5.128906 -29.554688 4.894531 -28.785156 4.625 -27.984375 C 4.226562 -27.046875 3.859375 -26.171875 3.515625 -25.359375 C 3.179688 -24.554688 2.945312 -23.617188 2.8125 -22.546875 C 2.6875 -21.609375 2.65625 -20.703125 2.71875 -19.828125 C 2.78125 -18.953125 2.75 -18.046875 2.625 -17.109375 C 2.488281 -16.171875 2.316406 -15.332031 2.109375 -14.59375 C 1.910156 -13.851562 1.8125 -13.015625 1.8125 -12.078125 C 1.8125 -11.804688 1.878906 -11.4375 2.015625 -10.96875 C 2.148438 -10.5 2.21875 -10.128906 2.21875 -9.859375 C 2.21875 -9.460938 2.148438 -9.03125 2.015625 -8.5625 C 1.878906 -8.09375 1.8125 -7.585938 1.8125 -7.046875 C 1.8125 -6.109375 1.878906 -5.203125 2.015625 -4.328125 C 2.148438 -3.453125 2.285156 -2.476562 2.421875 -1.40625 C 0.804688 -4.226562 0 -7.082031 0 -9.96875 C 0 -12.851562 0.269531 -15.769531 0.8125 -18.71875 C 1.34375 -21.8125 1.84375 -24.800781 2.3125 -27.6875 C 2.78125 -30.570312 3.351562 -33.488281 4.03125 -36.4375 C 5.375 -42.34375 7.382812 -48.144531 10.0625 -53.84375 C 12.75 -59.550781 15.972656 -64.753906 19.734375 -69.453125 C 22.816406 -73.617188 26.472656 -77.007812 30.703125 -79.625 C 34.929688 -82.238281 39.726562 -83.007812 45.09375 -81.9375 C 47.113281 -81.539062 49.128906 -80.867188 51.140625 -79.921875 C 53.148438 -78.984375 54.828125 -77.644531 56.171875 -75.90625 C 57.648438 -74.019531 58.390625 -71.9375 58.390625 -69.65625 C 58.390625 -67.375 58.050781 -65.09375 57.375 -62.8125 C 56.03125 -58.914062 53.878906 -55.390625 50.921875 -52.234375 C 47.972656 -49.085938 44.957031 -46.171875 41.875 -43.484375 C 40.53125 -42.410156 39.15625 -41.335938 37.75 -40.265625 C 36.34375 -39.191406 34.898438 -38.1875 33.421875 -37.25 C 32.484375 -36.707031 31.441406 -36.203125 30.296875 -35.734375 C 29.160156 -35.265625 28.054688 -34.828125 26.984375 -34.421875 L 23.5625 -33.21875 C 22.882812 -33.082031 22.410156 -32.976562 22.140625 -32.90625 C 21.878906 -32.84375 21.613281 -32.476562 21.34375 -31.8125 C 20.800781 -30.875 20.597656 -29.898438 20.734375 -28.890625 C 20.867188 -27.878906 20.800781 -26.835938 20.53125 -25.765625 C 20.394531 -24.421875 20.160156 -23.144531 19.828125 -21.9375 C 19.492188 -20.726562 19.191406 -19.457031 18.921875 -18.125 C 18.390625 -15.707031 17.882812 -13.054688 17.40625 -10.171875 C 16.9375 -7.285156 16.972656 -4.566406 17.515625 -2.015625 C 18.054688 0.535156 19.363281 1.707031 21.4375 1.5 C 23.519531 1.300781 25.800781 0.363281 28.28125 -1.3125 C 30.769531 -2.988281 33.085938 -4.765625 35.234375 -6.640625 C 37.378906 -8.523438 38.851562 -9.800781 39.65625 -10.46875 C 40.726562 -11.40625 41.703125 -12.34375 42.578125 -13.28125 C 43.453125 -14.226562 44.359375 -15.171875 45.296875 -16.109375 C 45.835938 -16.773438 46.375 -17.375 46.90625 -17.90625 C 47.445312 -18.445312 47.914062 -18.988281 48.3125 -19.53125 C 48.3125 -19.53125 48.378906 -19.726562 48.515625 -20.125 C 48.648438 -20.53125 48.71875 -20.800781 48.71875 -20.9375 C 49.925781 -22.8125 51.300781 -24.6875 52.84375 -26.5625 C 54.382812 -28.445312 55.894531 -30.265625 57.375 -32.015625 C 59.257812 -34.160156 61.003906 -36.335938 62.609375 -38.546875 C 64.222656 -40.765625 65.898438 -43.015625 67.640625 -45.296875 C 68.316406 -46.234375 69.15625 -47.40625 70.15625 -48.8125 C 71.164062 -50.226562 72.273438 -51.238281 73.484375 -51.84375 C 74.691406 -52.445312 75.832031 -51.804688 76.90625 -49.921875 L 76.90625 -49.734375 C 77.039062 -49.597656 77.109375 -49.597656 77.109375 -49.734375 Z M 27.171875 -47.515625 C 26.640625 -46.578125 26.207031 -45.535156 25.875 -44.390625 C 25.539062 -43.253906 25.101562 -42.148438 24.5625 -41.078125 C 31.132812 -44.566406 36.769531 -49.0625 41.46875 -54.5625 L 44.890625 -58.984375 C 45.160156 -59.523438 45.53125 -59.992188 46 -60.390625 C 46.46875 -60.796875 46.769531 -61.269531 46.90625 -61.8125 C 47.039062 -62.34375 47.039062 -62.84375 46.90625 -63.3125 C 46.769531 -63.78125 46.769531 -64.285156 46.90625 -64.828125 L 47.71875 -69.0625 C 47.851562 -70.132812 47.648438 -71.578125 47.109375 -73.390625 C 46.578125 -75.203125 45.570312 -75.972656 44.09375 -75.703125 C 43.414062 -75.566406 42.742188 -75.128906 42.078125 -74.390625 C 41.410156 -73.648438 40.875 -73.015625 40.46875 -72.484375 L 36.84375 -67.640625 C 34.695312 -64.554688 32.953125 -61.335938 31.609375 -57.984375 C 30.265625 -54.628906 28.851562 -51.34375 27.375 -48.125 C 27.375 -48.125 27.375 -48.085938 27.375 -48.015625 C 27.375 -47.953125 27.304688 -47.785156 27.171875 -47.515625 Z M 27.171875 -47.515625 "/></g></g></g><g fill="#000000" fill-opacity="1"><g transform="translate(453.101743, 481.283642)"><g><path d="M 126.234375 -136.703125 C 127.578125 -133.878906 127.710938 -131.660156 126.640625 -130.046875 C 125.566406 -128.441406 124.554688 -126.632812 123.609375 -124.625 C 123.210938 -123.550781 122.910156 -122.410156 122.703125 -121.203125 C 122.503906 -119.992188 122.070312 -118.71875 121.40625 -117.375 L 116.5625 -108.109375 L 106.90625 -88.984375 C 105.5625 -86.171875 104.148438 -83.421875 102.671875 -80.734375 C 101.203125 -78.046875 100.128906 -75.226562 99.453125 -72.28125 C 101.460938 -72.28125 103.609375 -72.175781 105.890625 -71.96875 C 108.179688 -71.769531 110.332031 -71.738281 112.34375 -71.875 C 112.738281 -72.007812 113.140625 -72.007812 113.546875 -71.875 C 113.953125 -71.738281 114.351562 -71.738281 114.75 -71.875 C 114.75 -71.875 114.847656 -72.070312 115.046875 -72.46875 C 115.253906 -72.875 115.492188 -73.007812 115.765625 -72.875 C 116.429688 -72.738281 117 -72.535156 117.46875 -72.265625 C 117.9375 -72.003906 118.039062 -71.40625 117.78125 -70.46875 C 117.507812 -69.53125 116.664062 -68.859375 115.25 -68.453125 C 113.84375 -68.046875 112.804688 -67.773438 112.140625 -67.640625 C 110.523438 -67.242188 108.878906 -67.046875 107.203125 -67.046875 C 105.523438 -67.046875 103.945312 -66.84375 102.46875 -66.4375 C 100.863281 -66.03125 99.1875 -65.425781 97.4375 -64.625 C 95.695312 -63.6875 94.222656 -61.84375 93.015625 -59.09375 C 91.804688 -56.34375 90.800781 -54.023438 90 -52.140625 L 83.34375 -36.03125 C 82.007812 -33.082031 80.90625 -30.128906 80.03125 -27.171875 C 79.15625 -24.222656 78.179688 -21.207031 77.109375 -18.125 C 74.691406 -11.8125 72.238281 -5.46875 69.75 0.90625 C 67.269531 7.28125 64.890625 13.6875 62.609375 20.125 C 61.804688 22.414062 60.898438 24.632812 59.890625 26.78125 C 58.890625 28.925781 57.550781 30.367188 55.875 31.109375 C 54.195312 31.847656 51.878906 31.34375 48.921875 29.59375 C 44.898438 27.039062 43.289062 23.550781 44.09375 19.125 C 44.757812 15.632812 45.726562 12.078125 47 8.453125 C 48.28125 4.828125 49.457031 1.335938 50.53125 -2.015625 C 52.007812 -6.304688 53.519531 -10.460938 55.0625 -14.484375 C 56.601562 -18.515625 58.25 -22.546875 60 -26.578125 C 62.414062 -32.210938 64.59375 -37.984375 66.53125 -43.890625 C 68.476562 -49.796875 70.726562 -55.566406 73.28125 -61.203125 C 71.539062 -60.929688 69.832031 -60.492188 68.15625 -59.890625 C 66.476562 -59.285156 64.628906 -58.914062 62.609375 -58.78125 C 60.460938 -58.65625 58.347656 -58.421875 56.265625 -58.078125 C 54.191406 -57.742188 52.078125 -57.441406 49.921875 -57.171875 C 47.910156 -57.035156 45.359375 -56.734375 42.265625 -56.265625 C 39.179688 -55.796875 37.039062 -54.828125 35.84375 -53.359375 C 34.894531 -52.273438 34.148438 -50.691406 33.609375 -48.609375 C 33.078125 -46.535156 32.546875 -44.757812 32.015625 -43.28125 L 30.609375 -37.640625 C 30.066406 -34.554688 29.222656 -31.503906 28.078125 -28.484375 C 26.941406 -25.460938 25.90625 -22.410156 24.96875 -19.328125 C 23.894531 -15.972656 22.816406 -12.582031 21.734375 -9.15625 C 20.660156 -5.738281 19.65625 -2.285156 18.71875 1.203125 C 18.320312 2.546875 17.953125 4.289062 17.609375 6.4375 C 17.273438 8.582031 16.738281 10.523438 16 12.265625 C 15.257812 14.015625 14.085938 15.09375 12.484375 15.5 C 10.867188 15.769531 9.117188 15.332031 7.234375 14.1875 C 5.359375 13.050781 3.785156 11.578125 2.515625 9.765625 C 1.242188 7.953125 0.472656 6.304688 0.203125 4.828125 C -0.203125 2.679688 -0.0703125 0.503906 0.59375 -1.703125 C 1.269531 -3.921875 1.878906 -5.972656 2.421875 -7.859375 C 4.566406 -15.640625 6.945312 -23.285156 9.5625 -30.796875 C 12.175781 -38.316406 14.625 -45.898438 16.90625 -53.546875 C 15.96875 -53.816406 14.828125 -54.285156 13.484375 -54.953125 C 12.140625 -55.628906 11.066406 -56.503906 10.265625 -57.578125 C 9.460938 -58.648438 9.328125 -59.859375 9.859375 -61.203125 C 10.265625 -62.140625 11.101562 -62.8125 12.375 -63.21875 C 13.65625 -63.625 14.695312 -63.890625 15.5 -64.015625 C 17.382812 -64.554688 18.726562 -64.828125 19.53125 -64.828125 C 20.332031 -64.828125 21.132812 -65.632812 21.9375 -67.25 C 22.613281 -68.457031 23.1875 -69.695312 23.65625 -70.96875 C 24.125 -72.238281 24.628906 -73.476562 25.171875 -74.6875 C 26.242188 -77.375 27.316406 -80.054688 28.390625 -82.734375 C 29.460938 -85.421875 30.46875 -88.039062 31.40625 -90.59375 C 34.894531 -99.320312 38.414062 -107.976562 41.96875 -116.5625 C 45.53125 -125.15625 49.457031 -133.546875 53.75 -141.734375 C 54.6875 -143.078125 55.425781 -144.421875 55.96875 -145.765625 C 55.96875 -145.628906 56.101562 -145.992188 56.375 -146.859375 C 56.644531 -147.734375 56.644531 -148.101562 56.375 -147.96875 C 57.445312 -149.445312 58.851562 -150.148438 60.59375 -150.078125 C 62.34375 -150.015625 63.957031 -149.648438 65.4375 -148.984375 C 67.445312 -148.304688 69.320312 -147.128906 71.0625 -145.453125 C 72.8125 -143.773438 73.285156 -141.796875 72.484375 -139.515625 C 71.941406 -138.304688 71.164062 -137.128906 70.15625 -135.984375 C 69.15625 -134.847656 68.316406 -133.675781 67.640625 -132.46875 C 67.109375 -131.125 66.640625 -129.613281 66.234375 -127.9375 C 65.835938 -126.257812 65.234375 -124.617188 64.421875 -123.015625 C 63.484375 -120.992188 62.578125 -118.941406 61.703125 -116.859375 C 60.828125 -114.785156 59.851562 -112.742188 58.78125 -110.734375 C 57.039062 -107.378906 55.429688 -103.890625 53.953125 -100.265625 C 52.472656 -96.640625 50.929688 -93.082031 49.328125 -89.59375 C 48.390625 -87.445312 47.75 -85.363281 47.40625 -83.34375 C 47.070312 -81.332031 46.4375 -79.253906 45.5 -77.109375 C 44.957031 -75.492188 44.351562 -73.878906 43.6875 -72.265625 C 43.019531 -70.660156 42.28125 -69.117188 41.46875 -67.640625 C 44.15625 -67.640625 46.773438 -67.972656 49.328125 -68.640625 C 51.878906 -69.316406 54.492188 -69.789062 57.171875 -70.0625 L 66.4375 -70.671875 C 67.914062 -70.804688 69.625 -70.804688 71.5625 -70.671875 C 73.507812 -70.535156 75.15625 -70.734375 76.5 -71.265625 C 77.707031 -71.804688 78.847656 -73.25 79.921875 -75.59375 C 80.992188 -77.945312 82 -80.429688 82.9375 -83.046875 C 83.882812 -85.660156 84.625 -87.640625 85.15625 -88.984375 L 93.421875 -108.3125 L 108.109375 -141.328125 C 108.785156 -142.941406 109.289062 -144.285156 109.625 -145.359375 C 109.957031 -146.429688 111.398438 -146.765625 113.953125 -146.359375 C 116.503906 -146.097656 118.921875 -144.992188 121.203125 -143.046875 C 123.484375 -141.097656 125.160156 -138.984375 126.234375 -136.703125 Z M 38.453125 -73.484375 L 52.34375 -105.09375 C 50.332031 -100.800781 48.082031 -96.539062 45.59375 -92.3125 C 43.113281 -88.082031 41.003906 -83.6875 39.265625 -79.125 C 37.515625 -74.5625 35.898438 -70.097656 34.421875 -65.734375 C 32.953125 -61.367188 31.476562 -56.90625 30 -52.34375 C 32.6875 -59.457031 35.503906 -66.503906 38.453125 -73.484375 Z M 62.40625 7.65625 C 63.351562 6.039062 64.0625 4.425781 64.53125 2.8125 C 65 1.207031 65.5 -0.46875 66.03125 -2.21875 C 65.5 -1.144531 64.757812 -0.0703125 63.8125 1 C 62.875 2.082031 62.273438 3.222656 62.015625 4.421875 C 61.609375 5.503906 61.367188 6.613281 61.296875 7.75 C 61.234375 8.894531 61.066406 10.003906 60.796875 11.078125 C 61.066406 10.398438 61.335938 9.789062 61.609375 9.25 C 61.878906 8.71875 62.144531 8.1875 62.40625 7.65625 Z M 53.15625 -106.90625 C 52.882812 -106.363281 52.75 -106.03125 52.75 -105.90625 Z M 53.15625 -106.90625 "/></g></g></g><g fill="#000000" fill-opacity="1"><g transform="translate(559.406358, 481.283642)"><g><path d="M 52.75 -49.53125 C 53.15625 -47.644531 52.71875 -45.695312 51.4375 -43.6875 C 50.164062 -41.675781 48.992188 -40 47.921875 -38.65625 C 46.171875 -36.101562 44.457031 -33.617188 42.78125 -31.203125 C 41.101562 -28.785156 39.328125 -26.367188 37.453125 -23.953125 C 35.429688 -21.273438 33.113281 -18.191406 30.5 -14.703125 C 27.882812 -11.210938 24.832031 -9.0625 21.34375 -8.25 C 20.800781 -8.25 19.789062 -8.414062 18.3125 -8.75 C 16.84375 -9.09375 15.46875 -9.5 14.1875 -9.96875 C 12.914062 -10.4375 12.28125 -10.875 12.28125 -11.28125 L 12.6875 -11.28125 C 11.875 -11.675781 11.566406 -11.671875 11.765625 -11.265625 C 11.972656 -10.867188 11.472656 -11.140625 10.265625 -12.078125 C 9.328125 -12.753906 8.554688 -13.492188 7.953125 -14.296875 C 7.347656 -15.097656 6.710938 -15.96875 6.046875 -16.90625 C 4.960938 -18.382812 3.816406 -19.863281 2.609375 -21.34375 C 1.410156 -22.820312 0.609375 -24.429688 0.203125 -26.171875 C 0.203125 -26.578125 0.164062 -27.445312 0.09375 -28.78125 C 0.03125 -30.125 0.0664062 -31.398438 0.203125 -32.609375 C 0.335938 -33.816406 0.671875 -34.421875 1.203125 -34.421875 C 1.472656 -34.421875 1.539062 -34.253906 1.40625 -33.921875 C 1.269531 -33.585938 1.269531 -33.421875 1.40625 -33.421875 L 2.015625 -37.046875 C 1.742188 -36.640625 1.539062 -36.367188 1.40625 -36.234375 C 1.269531 -36.234375 1.335938 -36.972656 1.609375 -38.453125 C 1.878906 -39.929688 2.25 -41.675781 2.71875 -43.6875 C 3.1875 -45.695312 3.617188 -47.507812 4.015625 -49.125 C 4.421875 -50.738281 4.691406 -51.675781 4.828125 -51.9375 C 5.640625 -54.082031 6.410156 -56.226562 7.140625 -58.375 C 7.878906 -60.53125 9.257812 -62.210938 11.28125 -63.421875 C 12.75 -64.492188 14.421875 -64.960938 16.296875 -64.828125 C 18.179688 -64.691406 20.0625 -64.222656 21.9375 -63.421875 C 22.75 -63.148438 23.992188 -62.578125 25.671875 -61.703125 C 27.347656 -60.828125 28.1875 -59.851562 28.1875 -58.78125 C 28.1875 -58.25 27.984375 -57.847656 27.578125 -57.578125 C 27.179688 -57.304688 26.847656 -57.039062 26.578125 -56.78125 C 26.710938 -56.90625 26.976562 -56.96875 27.375 -56.96875 C 27.644531 -56.84375 27.3125 -56.039062 26.375 -54.5625 C 25.4375 -53.082031 24.832031 -52.410156 24.5625 -52.546875 C 24.425781 -52.546875 24.425781 -52.742188 24.5625 -53.140625 C 24.695312 -53.546875 24.832031 -53.882812 24.96875 -54.15625 C 21.207031 -47.976562 18.050781 -41.203125 15.5 -33.828125 C 15.90625 -34.765625 16.578125 -36.335938 17.515625 -38.546875 C 18.453125 -40.765625 19.421875 -42.847656 20.421875 -44.796875 C 21.429688 -46.742188 22.003906 -47.648438 22.140625 -47.515625 C 22.273438 -47.515625 21.941406 -46.675781 21.140625 -45 C 20.335938 -43.320312 19.363281 -41.207031 18.21875 -38.65625 C 17.082031 -36.101562 16.078125 -33.519531 15.203125 -30.90625 C 14.328125 -28.289062 13.851562 -25.941406 13.78125 -23.859375 C 13.71875 -21.773438 14.359375 -20.398438 15.703125 -19.734375 C 16.773438 -19.191406 18.015625 -19.253906 19.421875 -19.921875 C 20.835938 -20.597656 22.210938 -21.472656 23.546875 -22.546875 C 24.890625 -23.617188 25.898438 -24.425781 26.578125 -24.96875 C 28.453125 -26.4375 30.5625 -28.078125 32.90625 -29.890625 C 35.257812 -31.703125 37.109375 -33.484375 38.453125 -35.234375 C 38.179688 -34.960938 37.710938 -34.828125 37.046875 -34.828125 C 36.910156 -35.097656 37.273438 -35.96875 38.140625 -37.4375 C 39.015625 -38.914062 40.15625 -40.59375 41.5625 -42.46875 C 42.976562 -44.351562 44.320312 -46.066406 45.59375 -47.609375 C 46.875 -49.148438 47.71875 -50.054688 48.125 -50.328125 C 48.789062 -50.867188 49.691406 -51.207031 50.828125 -51.34375 C 51.972656 -51.476562 52.613281 -50.875 52.75 -49.53125 Z M 17.515625 -74.890625 C 17.515625 -74.890625 17.3125 -75.191406 16.90625 -75.796875 C 16.507812 -76.398438 16.3125 -76.769531 16.3125 -76.90625 C 16.3125 -77.175781 16.273438 -77.847656 16.203125 -78.921875 C 16.140625 -79.992188 16.207031 -81 16.40625 -81.9375 C 16.601562 -82.875 17.039062 -83.144531 17.71875 -82.75 C 17.71875 -83.019531 18.085938 -83.585938 18.828125 -84.453125 C 19.566406 -85.328125 19.597656 -85.09375 18.921875 -83.75 C 20.671875 -86.03125 22.28125 -88.78125 23.75 -92 L 21.34375 -88.390625 C 22.28125 -90.265625 23.285156 -92.644531 24.359375 -95.53125 C 25.429688 -98.414062 26.035156 -100.191406 26.171875 -100.859375 C 26.171875 -100.992188 26.132812 -101.394531 26.0625 -102.0625 C 26 -102.738281 26.035156 -103.144531 26.171875 -103.28125 C 24.023438 -104.082031 23.351562 -105.019531 24.15625 -106.09375 C 24.96875 -107.164062 25.84375 -108.039062 26.78125 -108.71875 C 26.375 -108.71875 26.101562 -108.851562 25.96875 -109.125 C 25.570312 -109.519531 25.773438 -109.851562 26.578125 -110.125 C 27.378906 -110.394531 27.914062 -110.597656 28.1875 -110.734375 C 29.664062 -111.398438 31.207031 -111.597656 32.8125 -111.328125 C 34.425781 -111.066406 35.90625 -110.597656 37.25 -109.921875 C 38.320312 -109.253906 39.328125 -108.25 40.265625 -106.90625 C 41.203125 -105.5625 41.875 -104.285156 42.28125 -103.078125 C 42.6875 -101.734375 42.519531 -100.390625 41.78125 -99.046875 C 41.039062 -97.710938 40.203125 -96.640625 39.265625 -95.828125 C 38.859375 -95.429688 38.351562 -95.0625 37.75 -94.71875 C 37.144531 -94.382812 36.570312 -94.019531 36.03125 -93.625 C 35.5 -92.945312 35.164062 -92.171875 35.03125 -91.296875 C 34.894531 -90.429688 34.5625 -89.660156 34.03125 -88.984375 C 33.757812 -88.453125 33.351562 -88.050781 32.8125 -87.78125 C 32.28125 -87.507812 31.878906 -87.109375 31.609375 -86.578125 C 30.804688 -86.035156 30.738281 -85.429688 31.40625 -84.765625 C 30.601562 -84.359375 29.929688 -83.882812 29.390625 -83.34375 C 28.453125 -81.738281 27.578125 -80.429688 26.765625 -79.421875 C 25.960938 -78.410156 24.957031 -77.4375 23.75 -76.5 C 24.832031 -77.175781 25.804688 -77.878906 26.671875 -78.609375 C 27.546875 -79.347656 28.453125 -80.390625 29.390625 -81.734375 C 31.003906 -83.753906 32.953125 -85.234375 35.234375 -86.171875 C 34.296875 -85.097656 33.554688 -83.957031 33.015625 -82.75 C 32.484375 -81.539062 31.613281 -80.53125 30.40625 -79.71875 C 29.59375 -79.320312 29.148438 -79.222656 29.078125 -79.421875 C 29.015625 -79.617188 28.984375 -79.75 28.984375 -79.8125 C 28.984375 -79.882812 28.515625 -79.519531 27.578125 -78.71875 C 27.578125 -78.71875 27.742188 -78.75 28.078125 -78.8125 C 28.421875 -78.882812 28.457031 -78.785156 28.1875 -78.515625 C 27.25 -77.710938 26.304688 -76.773438 25.359375 -75.703125 C 24.421875 -74.628906 23.347656 -73.820312 22.140625 -73.28125 C 21.609375 -73.144531 21.070312 -72.941406 20.53125 -72.671875 C 20 -72.410156 19.394531 -72.410156 18.71875 -72.671875 C 18.050781 -73.078125 17.75 -73.476562 17.8125 -73.875 C 17.882812 -74.28125 17.785156 -74.617188 17.515625 -74.890625 Z M 13.6875 -26.984375 C 13.820312 -27.242188 13.820312 -27.304688 13.6875 -27.171875 L 13.28125 -25.5625 L 13.6875 -26.78125 Z M 20.328125 -86.765625 L 21.140625 -87.984375 C 21.003906 -87.578125 20.832031 -87.269531 20.625 -87.0625 C 20.425781 -86.863281 20.328125 -86.765625 20.328125 -86.765625 Z M 18.328125 -82.953125 C 18.191406 -82.816406 18.054688 -82.75 17.921875 -82.75 C 18.054688 -82.75 18.125 -82.710938 18.125 -82.640625 C 18.125 -82.578125 18.125 -82.546875 18.125 -82.546875 C 18.257812 -82.679688 18.328125 -82.816406 18.328125 -82.953125 Z M 18.328125 -82.953125 "/></g></g></g><g fill="#000000" fill-opacity="1"><g transform="translate(597.458563, 481.283642)"><g><path d="M 98.25 -48.125 C 98.519531 -47.445312 98.382812 -46.804688 97.84375 -46.203125 C 97.3125 -45.597656 96.84375 -45.03125 96.4375 -44.5 C 95.363281 -43.019531 94.1875 -41.609375 92.90625 -40.265625 C 91.632812 -38.921875 90.257812 -37.644531 88.78125 -36.4375 C 88.113281 -35.769531 87.476562 -35 86.875 -34.125 C 86.269531 -33.25 85.628906 -32.476562 84.953125 -31.8125 C 82.804688 -29.394531 79.851562 -27.28125 76.09375 -25.46875 C 72.34375 -23.65625 68.550781 -22.582031 64.71875 -22.25 C 60.894531 -21.914062 57.707031 -22.753906 55.15625 -24.765625 C 52.613281 -26.773438 51.410156 -30.265625 51.546875 -35.234375 C 48.179688 -30.671875 44.585938 -26.375 40.765625 -22.34375 C 36.941406 -18.320312 33.488281 -13.828125 30.40625 -8.859375 C 28.65625 -6.171875 27.242188 -3.582031 26.171875 -1.09375 C 25.097656 1.382812 24.226562 4.164062 23.5625 7.25 C 23.425781 8.457031 23.253906 9.628906 23.046875 10.765625 C 22.847656 11.910156 22.414062 13.019531 21.75 14.09375 C 20.269531 16.375 18.320312 17.445312 15.90625 17.3125 C 13.488281 17.175781 11.34375 16.4375 9.46875 15.09375 C 6.78125 13.082031 5.300781 10.195312 5.03125 6.4375 C 4.757812 2.6875 4.691406 -0.800781 4.828125 -4.03125 C 4.828125 -5.238281 5.0625 -6.445312 5.53125 -7.65625 C 6 -8.863281 6.300781 -9.9375 6.4375 -10.875 C 6.4375 -10.875 6.367188 -11.476562 6.234375 -12.6875 C 6.109375 -13.894531 6.109375 -14.363281 6.234375 -14.09375 C 6.109375 -14.363281 5.976562 -14.734375 5.84375 -15.203125 C 5.707031 -15.671875 5.640625 -16.375 5.640625 -17.3125 C 5.640625 -18.382812 5.707031 -19.421875 5.84375 -20.421875 C 5.976562 -21.429688 5.910156 -22.476562 5.640625 -23.5625 C 5.503906 -24.894531 5.367188 -26.066406 5.234375 -27.078125 C 5.097656 -28.085938 5.164062 -29.265625 5.4375 -30.609375 C 5.4375 -30.867188 5.601562 -31.398438 5.9375 -32.203125 C 6.269531 -33.015625 6.4375 -33.421875 6.4375 -33.421875 C 6.4375 -33.015625 6.503906 -32.8125 6.640625 -32.8125 C 6.640625 -33.082031 6.640625 -33.414062 6.640625 -33.8125 C 6.640625 -34.21875 6.570312 -34.625 6.4375 -35.03125 L 6.234375 -34.828125 C 6.503906 -35.234375 6.367188 -36.472656 5.828125 -38.546875 C 5.296875 -40.628906 4.796875 -42.8125 4.328125 -45.09375 C 3.859375 -47.375 3.691406 -48.921875 3.828125 -49.734375 C 4.222656 -51.203125 4.890625 -52.203125 5.828125 -52.734375 C 6.773438 -53.273438 7.71875 -53.816406 8.65625 -54.359375 C 9.0625 -54.628906 9.628906 -55.097656 10.359375 -55.765625 C 11.097656 -56.441406 11.941406 -56.910156 12.890625 -57.171875 C 13.960938 -57.578125 15.203125 -57.742188 16.609375 -57.671875 C 18.015625 -57.609375 19.125 -57.039062 19.9375 -55.96875 C 20.601562 -55.300781 20.832031 -54.796875 20.625 -54.453125 C 20.425781 -54.117188 20.460938 -53.617188 20.734375 -52.953125 C 20.597656 -53.222656 20.695312 -53.390625 21.03125 -53.453125 C 21.375 -53.515625 21.613281 -53.414062 21.75 -53.15625 C 21.875 -52.882812 21.96875 -52.242188 22.03125 -51.234375 C 22.101562 -50.234375 22.070312 -49.796875 21.9375 -49.921875 L 21.34375 -51.34375 C 21.875 -49.59375 22.273438 -47.84375 22.546875 -46.09375 C 22.816406 -44.351562 23.019531 -42.613281 23.15625 -40.875 L 23.15625 -40.671875 L 23.5625 -34.625 C 23.5625 -34.894531 23.523438 -35.566406 23.453125 -36.640625 C 23.390625 -37.710938 23.359375 -38.851562 23.359375 -40.0625 C 23.617188 -37.375 23.953125 -34.1875 24.359375 -30.5 C 24.765625 -26.8125 25.097656 -23.457031 25.359375 -20.4375 C 25.628906 -17.414062 25.695312 -15.566406 25.5625 -14.890625 C 26.632812 -16.503906 27.742188 -18.113281 28.890625 -19.71875 C 30.035156 -21.332031 31.207031 -22.878906 32.40625 -24.359375 C 32.945312 -25.160156 33.550781 -25.894531 34.21875 -26.5625 C 34.894531 -27.238281 35.5 -27.847656 36.03125 -28.390625 C 36.707031 -29.054688 37.113281 -29.757812 37.25 -30.5 C 37.382812 -31.238281 37.648438 -31.875 38.046875 -32.40625 C 39.117188 -34.289062 40.425781 -35.9375 41.96875 -37.34375 C 43.519531 -38.75 44.96875 -40.191406 46.3125 -41.671875 L 52.953125 -48.515625 C 55.097656 -50.929688 57.242188 -53.484375 59.390625 -56.171875 C 61.535156 -58.859375 64.085938 -61.070312 67.046875 -62.8125 C 68.390625 -63.75 70.066406 -64.285156 72.078125 -64.421875 C 74.085938 -64.554688 75.832031 -64.1875 77.3125 -63.3125 C 78.789062 -62.445312 79.394531 -60.9375 79.125 -58.78125 C 78.988281 -57.976562 78.71875 -57.34375 78.3125 -56.875 C 77.914062 -56.40625 77.378906 -55.898438 76.703125 -55.359375 C 74.960938 -53.753906 73.015625 -52.414062 70.859375 -51.34375 C 68.710938 -50.269531 66.769531 -48.789062 65.03125 -46.90625 L 61.40625 -43.078125 L 60.203125 -42.28125 C 60.066406 -41.738281 60.097656 -41.429688 60.296875 -41.359375 C 60.492188 -41.296875 60.523438 -41.132812 60.390625 -40.875 C 60.128906 -39.925781 59.660156 -38.710938 58.984375 -37.234375 C 58.316406 -35.765625 57.914062 -34.359375 57.78125 -33.015625 C 57.644531 -31.671875 58.113281 -30.664062 59.1875 -30 C 59.988281 -29.59375 61.195312 -29.421875 62.8125 -29.484375 C 64.425781 -29.554688 65.632812 -29.660156 66.4375 -29.796875 C 67.914062 -30.066406 69.320312 -30.738281 70.65625 -31.8125 C 72 -32.882812 73.34375 -33.6875 74.6875 -34.21875 C 76.164062 -34.894531 77.472656 -35.703125 78.609375 -36.640625 C 79.753906 -37.578125 80.929688 -38.515625 82.140625 -39.453125 C 82.410156 -39.585938 83.316406 -40.5625 84.859375 -42.375 C 86.398438 -44.1875 88.175781 -46 90.1875 -47.8125 C 92.207031 -49.625 94.019531 -50.765625 95.625 -51.234375 C 97.238281 -51.703125 98.113281 -50.664062 98.25 -48.125 Z M 21.9375 -39.0625 C 22.070312 -40.664062 22.039062 -42.273438 21.84375 -43.890625 C 21.644531 -45.503906 21.410156 -47.046875 21.140625 -48.515625 C 21.003906 -49.191406 20.867188 -49.832031 20.734375 -50.4375 C 20.597656 -51.039062 20.394531 -51.609375 20.125 -52.140625 C 20 -52.273438 19.632812 -52.742188 19.03125 -53.546875 C 18.425781 -54.359375 18.125 -54.628906 18.125 -54.359375 C 18.125 -53.953125 18.320312 -53.476562 18.71875 -52.9375 C 19.125 -52.40625 19.394531 -51.941406 19.53125 -51.546875 C 19.800781 -50.867188 20 -50.128906 20.125 -49.328125 C 20.257812 -48.523438 20.394531 -47.71875 20.53125 -46.90625 C 20.800781 -45.164062 20.9375 -43.519531 20.9375 -41.96875 C 20.9375 -40.425781 20.867188 -38.785156 20.734375 -37.046875 C 20.597656 -35.035156 20.628906 -32.953125 20.828125 -30.796875 C 21.035156 -28.648438 21.070312 -26.640625 20.9375 -24.765625 C 21.207031 -27.046875 21.410156 -29.394531 21.546875 -31.8125 C 21.679688 -34.226562 21.8125 -36.644531 21.9375 -39.0625 Z M 20.734375 -21.546875 C 20.867188 -22.078125 20.800781 -22.34375 20.53125 -22.34375 C 20.394531 -21.8125 20.460938 -21.546875 20.734375 -21.546875 Z M 23.75 -26.578125 C 24.019531 -27.648438 24.019531 -28.65625 23.75 -29.59375 Z M 23.15625 -42.6875 C 23.15625 -44.695312 23.15625 -45.703125 23.15625 -45.703125 Z M 23.359375 -40.265625 C 23.359375 -40.398438 23.320312 -40.535156 23.25 -40.671875 C 23.1875 -40.804688 23.15625 -40.941406 23.15625 -41.078125 L 23.15625 -40.671875 C 23.15625 -40.535156 23.222656 -40.398438 23.359375 -40.265625 Z M 23.359375 -40.265625 "/></g></g></g><g fill="#000000" fill-opacity="1"><g transform="translate(681.012373, 481.283642)"><g><path d="M 77.109375 -49.734375 C 77.515625 -48.921875 77.613281 -48.242188 77.40625 -47.703125 C 77.207031 -47.171875 76.835938 -46.570312 76.296875 -45.90625 L 70.0625 -37.640625 L 59.1875 -23.5625 C 57.84375 -21.8125 56.363281 -20.0625 54.75 -18.3125 C 53.144531 -16.570312 51.601562 -14.765625 50.125 -12.890625 C 48.65625 -10.867188 47.210938 -8.816406 45.796875 -6.734375 C 44.390625 -4.660156 42.816406 -2.6875 41.078125 -0.8125 C 39.328125 1.070312 37.378906 2.953125 35.234375 4.828125 C 33.085938 6.710938 30.804688 8.320312 28.390625 9.65625 C 25.171875 11.40625 21.75 11.742188 18.125 10.671875 C 15.570312 9.992188 13.15625 8.882812 10.875 7.34375 C 8.59375 5.800781 6.578125 4.023438 4.828125 2.015625 C 4.296875 1.335938 3.828125 0.726562 3.421875 0.1875 C 3.015625 -0.34375 2.75 -1.007812 2.625 -1.8125 C 2.488281 -2.476562 2.382812 -3.144531 2.3125 -3.8125 C 2.25 -4.488281 2.21875 -5.164062 2.21875 -5.84375 C 2.082031 -7.050781 2.179688 -8.15625 2.515625 -9.15625 C 2.847656 -10.164062 3.082031 -11.273438 3.21875 -12.484375 C 3.488281 -13.828125 3.859375 -15.101562 4.328125 -16.3125 C 4.796875 -17.519531 5.097656 -18.789062 5.234375 -20.125 C 5.503906 -21.601562 5.804688 -22.976562 6.140625 -24.25 C 6.472656 -25.53125 6.707031 -26.84375 6.84375 -28.1875 C 6.976562 -29.394531 7.007812 -30.632812 6.9375 -31.90625 C 6.875 -33.1875 6.976562 -34.429688 7.25 -35.640625 C 7.519531 -36.441406 7.890625 -37.242188 8.359375 -38.046875 C 8.828125 -38.859375 9.195312 -39.734375 9.46875 -40.671875 C 9.195312 -40.128906 8.859375 -39.554688 8.453125 -38.953125 C 8.054688 -38.347656 7.789062 -37.78125 7.65625 -37.25 C 7.382812 -36.4375 7.113281 -35.628906 6.84375 -34.828125 C 6.570312 -34.023438 6.304688 -33.285156 6.046875 -32.609375 C 5.773438 -31.804688 5.535156 -31.035156 5.328125 -30.296875 C 5.128906 -29.554688 4.894531 -28.785156 4.625 -27.984375 C 4.226562 -27.046875 3.859375 -26.171875 3.515625 -25.359375 C 3.179688 -24.554688 2.945312 -23.617188 2.8125 -22.546875 C 2.6875 -21.609375 2.65625 -20.703125 2.71875 -19.828125 C 2.78125 -18.953125 2.75 -18.046875 2.625 -17.109375 C 2.488281 -16.171875 2.316406 -15.332031 2.109375 -14.59375 C 1.910156 -13.851562 1.8125 -13.015625 1.8125 -12.078125 C 1.8125 -11.804688 1.878906 -11.4375 2.015625 -10.96875 C 2.148438 -10.5 2.21875 -10.128906 2.21875 -9.859375 C 2.21875 -9.460938 2.148438 -9.03125 2.015625 -8.5625 C 1.878906 -8.09375 1.8125 -7.585938 1.8125 -7.046875 C 1.8125 -6.109375 1.878906 -5.203125 2.015625 -4.328125 C 2.148438 -3.453125 2.285156 -2.476562 2.421875 -1.40625 C 0.804688 -4.226562 0 -7.082031 0 -9.96875 C 0 -12.851562 0.269531 -15.769531 0.8125 -18.71875 C 1.34375 -21.8125 1.84375 -24.800781 2.3125 -27.6875 C 2.78125 -30.570312 3.351562 -33.488281 4.03125 -36.4375 C 5.375 -42.34375 7.382812 -48.144531 10.0625 -53.84375 C 12.75 -59.550781 15.972656 -64.753906 19.734375 -69.453125 C 22.816406 -73.617188 26.472656 -77.007812 30.703125 -79.625 C 34.929688 -82.238281 39.726562 -83.007812 45.09375 -81.9375 C 47.113281 -81.539062 49.128906 -80.867188 51.140625 -79.921875 C 53.148438 -78.984375 54.828125 -77.644531 56.171875 -75.90625 C 57.648438 -74.019531 58.390625 -71.9375 58.390625 -69.65625 C 58.390625 -67.375 58.050781 -65.09375 57.375 -62.8125 C 56.03125 -58.914062 53.878906 -55.390625 50.921875 -52.234375 C 47.972656 -49.085938 44.957031 -46.171875 41.875 -43.484375 C 40.53125 -42.410156 39.15625 -41.335938 37.75 -40.265625 C 36.34375 -39.191406 34.898438 -38.1875 33.421875 -37.25 C 32.484375 -36.707031 31.441406 -36.203125 30.296875 -35.734375 C 29.160156 -35.265625 28.054688 -34.828125 26.984375 -34.421875 L 23.5625 -33.21875 C 22.882812 -33.082031 22.410156 -32.976562 22.140625 -32.90625 C 21.878906 -32.84375 21.613281 -32.476562 21.34375 -31.8125 C 20.800781 -30.875 20.597656 -29.898438 20.734375 -28.890625 C 20.867188 -27.878906 20.800781 -26.835938 20.53125 -25.765625 C 20.394531 -24.421875 20.160156 -23.144531 19.828125 -21.9375 C 19.492188 -20.726562 19.191406 -19.457031 18.921875 -18.125 C 18.390625 -15.707031 17.882812 -13.054688 17.40625 -10.171875 C 16.9375 -7.285156 16.972656 -4.566406 17.515625 -2.015625 C 18.054688 0.535156 19.363281 1.707031 21.4375 1.5 C 23.519531 1.300781 25.800781 0.363281 28.28125 -1.3125 C 30.769531 -2.988281 33.085938 -4.765625 35.234375 -6.640625 C 37.378906 -8.523438 38.851562 -9.800781 39.65625 -10.46875 C 40.726562 -11.40625 41.703125 -12.34375 42.578125 -13.28125 C 43.453125 -14.226562 44.359375 -15.171875 45.296875 -16.109375 C 45.835938 -16.773438 46.375 -17.375 46.90625 -17.90625 C 47.445312 -18.445312 47.914062 -18.988281 48.3125 -19.53125 C 48.3125 -19.53125 48.378906 -19.726562 48.515625 -20.125 C 48.648438 -20.53125 48.71875 -20.800781 48.71875 -20.9375 C 49.925781 -22.8125 51.300781 -24.6875 52.84375 -26.5625 C 54.382812 -28.445312 55.894531 -30.265625 57.375 -32.015625 C 59.257812 -34.160156 61.003906 -36.335938 62.609375 -38.546875 C 64.222656 -40.765625 65.898438 -43.015625 67.640625 -45.296875 C 68.316406 -46.234375 69.15625 -47.40625 70.15625 -48.8125 C 71.164062 -50.226562 72.273438 -51.238281 73.484375 -51.84375 C 74.691406 -52.445312 75.832031 -51.804688 76.90625 -49.921875 L 76.90625 -49.734375 C 77.039062 -49.597656 77.109375 -49.597656 77.109375 -49.734375 Z M 27.171875 -47.515625 C 26.640625 -46.578125 26.207031 -45.535156 25.875 -44.390625 C 25.539062 -43.253906 25.101562 -42.148438 24.5625 -41.078125 C 31.132812 -44.566406 36.769531 -49.0625 41.46875 -54.5625 L 44.890625 -58.984375 C 45.160156 -59.523438 45.53125 -59.992188 46 -60.390625 C 46.46875 -60.796875 46.769531 -61.269531 46.90625 -61.8125 C 47.039062 -62.34375 47.039062 -62.84375 46.90625 -63.3125 C 46.769531 -63.78125 46.769531 -64.285156 46.90625 -64.828125 L 47.71875 -69.0625 C 47.851562 -70.132812 47.648438 -71.578125 47.109375 -73.390625 C 46.578125 -75.203125 45.570312 -75.972656 44.09375 -75.703125 C 43.414062 -75.566406 42.742188 -75.128906 42.078125 -74.390625 C 41.410156 -73.648438 40.875 -73.015625 40.46875 -72.484375 L 36.84375 -67.640625 C 34.695312 -64.554688 32.953125 -61.335938 31.609375 -57.984375 C 30.265625 -54.628906 28.851562 -51.34375 27.375 -48.125 C 27.375 -48.125 27.375 -48.085938 27.375 -48.015625 C 27.375 -47.953125 27.304688 -47.785156 27.171875 -47.515625 Z M 27.171875 -47.515625 "/></g></g></g></svg>